<?xml version="1.0" encoding="UTF-8" standalone="no"?>
<svg
        viewBox="0 0 384 512"
        version="1.1"
        id="svg1"
        xmlns="http://www.w3.org/2000/svg"
>
    <!--!Font Awesome Free 6.5.1 by @fontawesome - https://fontawesome.com License - https://fontawesome.com/license/free Copyright 2024 Fonticons, Inc.-->
    <g
            id="g2"
            transform="matrix(0.94763783,0,0,0.94763783,10.053537,20.501893)">
        <g
                id="g3"
                transform="matrix(0.99108387,0,0,0.99108387,1.711897,3.4553205)">
            <ellipse
                    style="fill:#ffffff"
                    id="path2"
                    cx="192"
                    cy="189.25343"
                    rx="105.83398"
                    ry="104.98956"/>
            <path
                    fill="#3b82f6"
                    d="M 215.7,499.2 C 267,435 384,279.4 384,192 384,86 298,0 192,0 86,0 0,86 0,192 c 0,87.4 117,243 168.3,307.2 12.3,15.3 35.1,15.3 47.4,0 z M 192,128 c 35.34625,0 63.99997,28.65378 63.99997,64 0,35.34622 -28.65372,64 -63.99997,64 -35.34625,0 -63.99997,-28.65378 -63.99997,-64 0,-35.34622 28.65372,-64 63.99997,-64 z"
                    id="path1"/>
            <path
                    d="M 215.7,499.2 C 267,435 384,279.4 384,192 384,86.000002 298,0 192,0 85.999998,0 -1.8e-6,86.000002 -1.8e-6,192 -1.8e-6,279.4 117,435 168.3,499.2 c 12.3,15.3 35.1,15.3 47.4,0 z"
                    style="fill:none;stroke:#3656a6;stroke-width:18.7087;stroke-dasharray:none;stroke-opacity:1;paint-order:fill markers stroke"
                    id="path1-2"/>
        </g>
    </g>
</svg>
